<!-- Generator: Adobe Illustrator 18.1.1, SVG Export Plug-In  -->
<svg version="1.1"
   xmlns="http://www.w3.org/2000/svg" xmlns:xlink="http://www.w3.org/1999/xlink" xmlns:a="http://ns.adobe.com/AdobeSVGViewerExtensions/3.0/"
   x="0px" y="0px" width="420.606px" height="248.004px" viewBox="0 0 420.606 248.004" enable-background="new 0 0 420.606 248.004"
   xml:space="preserve">
<defs>
</defs>
<g>
  <path fill="#F2F2F2" d="M420.606,114.868c-15.341-2.734-45.514-7.349-74.367-7.349c-0.443,0-0.863,0.013-1.303,0.016
    c0.048,1.762,0.015,3.536-0.199,5.328c-1.726,14.429-5.582,32.666-13.807,50.983C364.499,152.61,403.668,126.712,420.606,114.868z"
    />
  <path fill="#F2F2F2" d="M326.893,172.164c-4.847,9.207-10.884,18.293-18.441,26.776c-8.17,9.172-17.539,16.831-27.91,22.989
    c47.395,20.453,128.84,26.075,128.84,26.075S368.431,199.054,326.893,172.164z"/>
  <path fill="#F2F2F2" d="M111.316,199.307c-7.147-7.872-13.332-16.82-18.5-26.561c-41.229,27.009-81.593,75.258-81.593,75.258
    s80.861-5.581,128.328-25.855C129.075,216.035,119.596,208.427,111.316,199.307z"/>
  <path fill="#F2F2F2" d="M75.488,112.382c-0.136-1.629-0.132-3.244-0.057-4.85c-0.359-0.001-0.702-0.012-1.064-0.012
    c-28.874,0-59.033,4.614-74.366,7.349c16.702,11.676,55.027,37.019,88.273,48.497C81.403,147.774,77.004,130.497,75.488,112.382z"
    />
  <path fill="#F2F2F2" d="M331.223,111.246c2.16-18.057-17.02-30.766-42.291-38.958c-0.841-0.264-7.01-1.922-8.895,5.326
    c23.567,7.489,38.551,18.685,38.551,31.202c0,22.545-48.555,40.822-108.451,40.822c-59.896,0-107.359-18.277-107.359-40.822
    c0-12.502,14.555-23.686,39.555-31.174c0-0.004,0-0.007,0-0.011c0-7.217-9.003-6.092-9.894-5.884
    c-26.015,8.608-44.309,21.956-42.841,39.499c4.76,56.894,40.85,115.152,120.813,115.152
    C290.751,226.398,324.505,167.418,331.223,111.246z"/>
  <path fill="#D0494B" d="M210.137,120.149c20.177,0,37.893-3.551,51.728-9.311c3.066-6.237,4.781-14.58,4.781-25.789
    c0-43.213-25.3-85.048-56.508-85.048s-56.508,41.836-56.508,85.048c0,11.263,1.732,19.63,4.826,25.877
    C172.236,116.634,189.905,120.149,210.137,120.149z"/>
</g>
</svg>
